<?xml version="1.0" encoding="utf-8"?><!-- Generator: Adobe Illustrator 18.1.0, SVG Export Plug-In . SVG Version: 6.00 Build 0)  --><svg version="1.1" id="Layer_1" xmlns="http://www.w3.org/2000/svg" xmlns:xlink="http://www.w3.org/1999/xlink" x="0px" y="0px"     width="64px" height="64px" viewBox="0 0 64 64" enable-background="new 0 0 64 64" xml:space="preserve"><g>    <path fill="#2091EB" d="M36.5,38.2C36.4,38,36,37.9,35.8,38l-1.5,0.9C34,39,34,39.4,34.1,39.6l0.2,0.3c0.1,0.3,0.5,0.3,0.7,0.2        l1.5-0.9c0.3-0.1,0.3-0.5,0.2-0.7L36.5,38.2z"/>    <path fill="#2091EB" d="M27.6,22.4c-0.1-0.3-0.5-0.3-0.7-0.2L25.4,23c-0.3,0.1-0.3,0.5-0.2,0.7l0.2,0.3c0.1,0.3,0.5,0.3,0.7,0.2        l1.5-0.9c0.3-0.1,0.3-0.5,0.2-0.7L27.6,22.4z"/>    <path fill="#2091EB" d="M28.8,21.7c-0.1-0.3-0.5-0.3-0.7-0.2l-1.5,0.9c-0.3,0.1-0.3,0.5-0.2,0.7l0.2,0.3c0.1,0.3,0.5,0.3,0.7,0.2        l1.5-0.9c0.3-0.1,0.3-0.5,0.2-0.7L28.8,21.7z"/>    <path fill="#2091EB" d="M37.7,37.5c-0.1-0.3-0.5-0.3-0.7-0.2l-1.5,0.9c-0.3,0.1-0.3,0.5-0.2,0.7l0.2,0.3c0.1,0.3,0.5,0.3,0.7,0.2        l1.5-0.9c0.3-0.1,0.3-0.5,0.2-0.7L37.7,37.5z"/>    <path fill="#073590" d="M19.3,36.1c0.4,0.7,0.1,1.5-0.5,1.9l-3.7,2.1c-0.7,0.4-1.5,0.1-1.9-0.5L7.9,33c-0.7-1-1-1,0.5-1.9l0,0        c0.7-0.4,0.7-0.1,1.9,0.5L19.3,36.1z" style="fill:white"/>    <path fill="#073590" d="M20.6,38.5c-0.4-0.7-1.2-0.9-1.9-0.5L15,40.1c-0.7,0.4-0.9,1.2-0.5,1.9l2.9,8c0.5,1.1,0.3,1.4,1.9,0.5l0,0        c0.7-0.4,0.4-0.5,0.5-1.9L20.6,38.5z" style="fill:white"/>    <path fill="#2091EB" d="M39,17c0.4,0.7,0.1,1.5-0.5,1.9L34.8,21c-0.7,0.4-1.5,0.1-1.9-0.5l-0.7-1.2c-0.4-0.7-0.1-1.5,0.5-1.9        l3.7-2.1c0.7-0.4,1.5-0.1,1.9,0.5L39,17z" style="fill:grey"/>    <path fill="#2091EB" d="M47.9,32.8c0.4,0.7,0.1,1.5-0.5,1.9l-3.7,2.1c-0.7,0.4-1.5,0.1-1.9-0.5L41.1,35c-0.4-0.7-0.1-1.5,0.5-1.9        l3.7-2.1c0.7-0.4,1.5-0.1,1.9,0.5L47.9,32.8z" style="fill:grey"/>    <path fill="#073590" d="M43.9,29.8l4.9-2.3c0.3-0.1,0.5-0.2,0.7-0.3c2.7-1.5,8.5-7.7,7-10.4s-9.8-0.9-12.5,0.6        c-0.2,0.1-0.4,0.3-0.7,0.4l-4.5,3l-19-12.2C19,8,18.6,7.6,17.9,8l-2.4,1.4c-1.6,0.9-1.2,1.1-0.5,1.9l12.4,13.5l1.5,2.6l-2.3,1.5        c-6.1,3.4-13.1,11-12.6,11.9c0.6,1,10.7-1.2,16.7-4.6l2.5-1.2l1.5,2.6l5.1,17.6c0.3,1,0.3,1.4,1.9,0.5l2.4-1.4        c0.7-0.4,0.6-1,0.5-1.9L43.9,29.8z" style="fill:white"/></g></svg>